<?xml version="1.0" encoding="UTF-8" standalone="no"?>
<!DOCTYPE svg PUBLIC "-//W3C//DTD SVG 1.1//EN" "http://www.w3.org/Graphics/SVG/1.1/DTD/svg11.dtd">
<svg width="100%" height="100%" viewBox="0 0 510 508" version="1.1" xmlns="http://www.w3.org/2000/svg" xmlns:xlink="http://www.w3.org/1999/xlink" xml:space="preserve" xmlns:serif="http://www.serif.com/" style="fill-rule:evenodd;clip-rule:evenodd;stroke-linejoin:round;stroke-miterlimit:2;">
    <g id="BACKGROUND">
    </g>
    <g id="OBJECTS" transform="matrix(4.16667,0,0,4.16667,-299,-1363)">
        <g transform="matrix(1,0,0,1,-13.2,-1.92)">
            <text x="96.321px" y="448.025px" style="font-family:'MyriadPro-Regular', 'Myriad Pro', sans-serif;font-size:9.765px;fill:rgb(102,113,157);">B<tspan x="104.074px 110.762px 119.95px 128.718px 133.248px 142.075px 151.263px 158.976px 165.664px 174.852px 183.621px 190.885px " y="448.025px 448.025px 448.025px 448.025px 448.025px 448.025px 448.025px 448.025px 448.025px 448.025px 448.025px 448.025px ">LOG HORLOGER</tspan></text>
        </g>
        <g transform="matrix(1,0,0,1,-5.52,-3.6)">
            <text x="77.649px" y="439.202px" style="font-family:'Avenir-Book', 'Avenir';font-size:24.713px;">A L&apos;HEURE</text>
        </g>
        <g transform="matrix(1,0,0,1,142.948,412.964)">
            <path d="M0,-69.67L-7.216,-34.607C-7.227,-34.559 -7.247,-34.516 -7.259,-34.469L-7.232,-34.441C-6.819,-34.014 -6.825,-33.335 -7.245,-32.915C-7.6,-32.56 -8.134,-32.521 -8.55,-32.762C-9.086,-32.446 -9.724,-32.296 -10.384,-32.395C-11.859,-32.615 -12.905,-33.95 -12.766,-35.437L-12.652,-36.654L-36.307,-59.513C-42.073,-53.193 -45.59,-44.786 -45.59,-35.557C-45.59,-15.919 -29.67,0 -10.033,0C9.605,0 25.525,-15.919 25.525,-35.557C25.525,-51.71 14.751,-65.338 0,-69.67" style="fill:rgb(102,113,157);fill-rule:nonzero;"/>
        </g>
        <g transform="matrix(0.0934617,-0.995623,-0.995623,-0.0934617,137.802,349.774)">
            <path d="M-24.013,4.992L7.476,4.992C7.46,5.197 7.452,5.4 7.432,5.605C6.577,14.72 2.35,22.704 -3.896,28.448L-24.013,4.992Z" style="fill-rule:nonzero;"/>
        </g>
        <g transform="matrix(1,0,0,1,146.962,349.198)">
            <path d="M0,3.906L1.581,0.932C1.838,0.448 1.655,-0.153 1.171,-0.41C0.687,-0.667 0.086,-0.484 -0.171,0.001L-1.752,2.974C-2.01,3.458 -1.826,4.059 -1.342,4.316C-0.858,4.573 -0.257,4.389 0,3.906" style="fill:white;fill-rule:nonzero;"/>
        </g>
        <g transform="matrix(1,0,0,1,120.212,406.026)">
            <path d="M0,-4.726C-0.484,-4.983 -1.084,-4.799 -1.342,-4.316L-2.923,-1.342C-3.181,-0.858 -2.997,-0.257 -2.513,0.001C-2.029,0.257 -1.428,0.074 -1.171,-0.411L0.41,-3.384C0.667,-3.868 0.484,-4.469 0,-4.726" style="fill:white;fill-rule:nonzero;"/>
        </g>
        <g transform="matrix(1,0,0,1,161.125,391.452)">
            <path d="M0,-0.17L-2.974,-1.751C-3.458,-2.009 -4.059,-1.825 -4.316,-1.341C-4.573,-0.857 -4.389,-0.257 -3.906,0.001L-0.932,1.582C-0.448,1.839 0.153,1.655 0.41,1.172C0.667,0.687 0.484,0.087 0,-0.17" style="fill:white;fill-rule:nonzero;"/>
        </g>
        <g transform="matrix(1,0,0,1,104.707,363.362)">
            <path d="M0,0.17L2.974,1.752C3.458,2.009 4.059,1.825 4.316,1.341C4.573,0.857 4.39,0.257 3.906,-0.001L0.932,-1.582C0.448,-1.839 -0.153,-1.655 -0.41,-1.172C-0.667,-0.687 -0.484,-0.087 0,0.17" style="fill:white;fill-rule:nonzero;"/>
        </g>
        <g transform="matrix(1,0,0,1,157.473,360.373)">
            <path d="M0,3.436L2.887,1.702C3.357,1.419 3.509,0.81 3.227,0.34C2.944,-0.129 2.334,-0.282 1.865,0L-1.022,1.736C-1.492,2.018 -1.644,2.627 -1.362,3.097C-1.079,3.567 -0.47,3.718 0,3.436" style="fill:white;fill-rule:nonzero;"/>
        </g>
        <g transform="matrix(1,0,0,1,108.359,394.441)">
            <path d="M0,-3.436L-2.887,-1.702C-3.357,-1.419 -3.509,-0.81 -3.227,-0.34C-2.944,0.129 -2.335,0.282 -1.865,0L1.022,-1.736C1.492,-2.018 1.644,-2.627 1.361,-3.097C1.079,-3.567 0.469,-3.718 0,-3.436" style="fill:white;fill-rule:nonzero;"/>
        </g>
        <g transform="matrix(1,0,0,1,148.214,404.852)">
            <path d="M0,-3.91C-0.282,-4.38 -0.892,-4.531 -1.361,-4.249C-1.831,-3.967 -1.983,-3.357 -1.701,-2.888L0.034,-0.001C0.316,0.469 0.926,0.621 1.396,0.339C1.865,0.057 2.017,-0.553 1.735,-1.022L0,-3.91Z" style="fill:white;fill-rule:nonzero;"/>
        </g>
        <g transform="matrix(1,0,0,1,118.979,349.623)">
            <path d="M0,4.588C0.47,4.306 0.622,3.696 0.339,3.227L-1.396,0.34C-1.678,-0.13 -2.287,-0.282 -2.757,0C-3.227,0.282 -3.378,0.892 -3.096,1.361L-1.362,4.249C-1.08,4.719 -0.47,4.87 0,4.588" style="fill:white;fill-rule:nonzero;"/>
        </g>
        <g transform="matrix(1,0,0,1,164.337,378.399)">
            <path d="M0,-1.984L-3.368,-1.984C-3.916,-1.984 -4.36,-1.541 -4.36,-0.992C-4.36,-0.444 -3.916,0 -3.368,0L0,0C0.548,0 0.993,-0.444 0.993,-0.992C0.993,-1.541 0.548,-1.984 0,-1.984" style="fill:white;fill-rule:nonzero;"/>
        </g>
        <g transform="matrix(1,0,0,1,105.855,377.408)">
            <path d="M0,0C0,-0.549 -0.444,-0.992 -0.992,-0.992L-4.36,-0.992C-4.908,-0.992 -5.353,-0.549 -5.353,0C-5.353,0.548 -4.908,0.992 -4.36,0.992L-0.992,0.992C-0.444,0.992 0,0.548 0,0" style="fill:white;fill-rule:nonzero;"/>
        </g>
        <g transform="matrix(1,0,0,1,132.916,409.821)">
            <path d="M0,-5.353C-0.548,-5.353 -0.992,-4.91 -0.992,-4.361L-0.992,-0.993C-0.992,-0.445 -0.548,0 0,0C0.548,0 0.992,-0.445 0.992,-0.993L0.992,-4.361C0.992,-4.91 0.548,-5.353 0,-5.353" style="fill:white;fill-rule:nonzero;"/>
        </g>
        <g transform="matrix(1,0,0,1,132.916,350.347)">
            <path d="M0,-5.353C-0.548,-5.353 -0.992,-4.909 -0.992,-4.361L-0.992,-0.993C-0.992,-0.444 -0.548,0 0,0C0.548,0 0.992,-0.444 0.992,-0.993L0.992,-4.361C0.992,-4.909 0.548,-5.353 0,-5.353" style="fill:white;fill-rule:nonzero;"/>
        </g>
        <g transform="matrix(1,0,0,1,140.895,380.735)">
            <path d="M0,-52.096C0,-52.096 -0.275,-50.985 -0.793,-49.449C-0.791,-49.051 -0.699,-42.398 2.389,-39.069L-5.163,-2.378C-5.396,-1.242 -6.292,-0.409 -7.371,-0.196C-5.912,0 -4.544,-0.963 -4.247,-2.41L3.804,-39.358C0.621,-42.789 0,-52.096 0,-52.096" style="fill-rule:nonzero;"/>
        </g>
        <g transform="matrix(1,0,0,1,136.633,341.726)">
            <path d="M0,36.765L-35.034,0.388C-35.151,0.315 -35.265,0.244 -35.381,0.169C-36.687,-0.278 -38.736,-1.186 -39.624,-1.661C-40.108,-1.92 -40.628,-1.4 -40.37,-0.916C-40.34,-0.862 -40.296,-0.795 -40.26,-0.734C-40.137,-0.999 -39.812,-1.16 -39.499,-0.992C-38.61,-0.517 -37.456,0.03 -36.15,0.478C-36.034,0.551 -35.919,0.623 -35.803,0.697L-0.917,36.798C-0.504,37.225 -0.51,37.904 -0.929,38.324C-1.013,38.407 -1.113,38.461 -1.213,38.512C-0.814,38.685 -0.338,38.616 -0.013,38.29C0.407,37.87 0.413,37.192 0,36.765" style="fill-rule:nonzero;"/>
        </g>
        <g transform="matrix(0.706897,-0.707317,-0.707317,-0.706897,134.107,377.406)">
            <path d="M-0.843,-0.349C-1.501,-0.35 -2.035,0.184 -2.034,0.843C-2.034,1.501 -1.5,2.034 -0.843,2.034C-0.184,2.033 0.349,1.499 0.349,0.842C0.349,0.184 -0.185,-0.35 -0.843,-0.349" style="fill-rule:nonzero;"/>
        </g>
    </g>
</svg>
